<svg width="26" height="18" viewBox="0 0 26 18" fill="none" xmlns="http://www.w3.org/2000/svg">
<path d="M24.6175 3.25595C24.3335 2.18994 23.4966 1.35051 22.4338 1.06561C20.5077 0.547852 12.7837 0.547852 12.7837 0.547852C12.7837 0.547852 5.05979 0.547852 3.13355 1.06561C2.07085 1.35051 1.23385 2.18994 0.949821 3.25595C0.433685 5.188 0.433685 9.21908 0.433685 9.21908C0.433685 9.21908 0.433685 13.2502 0.949821 15.1824C1.23385 16.2483 2.07085 17.0877 3.13355 17.3727C5.05979 17.8904 12.7837 17.8904 12.7837 17.8904C12.7837 17.8904 20.5077 17.8904 22.4338 17.3727C23.4966 17.0877 24.3335 16.2483 24.6175 15.1824C25.1337 13.2502 25.1337 9.21908 25.1337 9.21908C25.1337 9.21908 25.1337 5.188 24.6175 3.25595Z" fill="#ED1D24"/>
</svg>
