<svg width="16" height="16" viewBox="0 0 16 16" fill="none" xmlns="http://www.w3.org/2000/svg">
<path fill-rule="evenodd" clip-rule="evenodd" d="M8 0C3.58233 0 0 3.67233 0 8.20233C0 11.8267 2.29233 14.9013 5.471 15.9857C5.871 16.0617 6.01767 15.808 6.01767 15.5913C6.01767 15.3957 6.01 14.7497 6.00667 14.0643C3.781 14.5603 3.31133 13.0963 3.31133 13.0963C2.94733 12.1483 2.423 11.8963 2.423 11.8963C1.69733 11.387 2.478 11.3977 2.478 11.3977C3.28133 11.4553 3.70433 12.2427 3.70433 12.2427C4.41767 13.4967 5.57567 13.1343 6.03233 12.9247C6.104 12.3947 6.31133 12.0327 6.54 11.828C4.76333 11.6203 2.89533 10.917 2.89533 7.774C2.89533 6.87867 3.20767 6.14667 3.71967 5.57233C3.63633 5.36567 3.36267 4.53133 3.797 3.40167C3.797 3.40167 4.469 3.18133 5.99767 4.24233C6.63567 4.06067 7.32033 3.96967 8 3.96633C8.68 3.96967 9.365 4.06067 10.0043 4.24233C11.531 3.18133 12.202 3.40167 12.202 3.40167C12.6373 4.53167 12.3633 5.36567 12.2803 5.57233C12.7937 6.14667 13.1037 6.87867 13.1037 7.774C13.1037 10.9247 11.2323 11.6183 9.45067 11.8213C9.73767 12.076 9.99333 12.575 9.99333 13.3403C9.99333 14.4377 9.98433 15.321 9.98433 15.5913C9.98433 15.8097 10.1283 16.0653 10.5337 15.9847C13.7107 14.899 16 11.8253 16 8.20233C16 3.67233 12.4183 0 8 0Z" fill="black"/>
</svg>
