<svg width="14" height="13" viewBox="0 0 14 13" fill="none" xmlns="http://www.w3.org/2000/svg">
<path d="M13.9118 2.25151C13.3913 2.48253 12.839 2.63389 12.2735 2.70053C12.8694 2.3443 13.3152 1.7833 13.5277 1.12234C12.9678 1.45479 12.3552 1.68902 11.7164 1.81492C11.4495 1.53016 11.1271 1.30326 10.7689 1.1483C10.4108 0.99333 10.0246 0.913605 9.63441 0.914064C8.05933 0.914064 6.78227 2.19112 6.78227 3.76648C6.78227 3.98972 6.80739 4.20731 6.85621 4.41644C4.48555 4.29734 2.38356 3.16196 0.976688 1.43617C0.722941 1.8715 0.589683 2.36654 0.590608 2.87043C0.590608 3.8599 1.09409 4.73309 1.85948 5.24448C1.40652 5.2301 0.963544 5.1077 0.567466 4.88747L0.567184 4.92359C0.567184 6.30535 1.55044 7.45794 2.85544 7.72041C2.43524 7.83416 1.99466 7.85076 1.5671 7.76895C1.93032 8.90207 2.98357 9.727 4.23155 9.74986C3.22125 10.5429 1.97351 10.9731 0.689104 10.971C0.459093 10.971 0.231904 10.9575 0.00866699 10.931C1.31283 11.7692 2.83081 12.2141 4.38113 12.2125C9.62791 12.2125 12.4967 7.86632 12.4967 4.09696C12.4967 3.97335 12.4942 3.85002 12.4888 3.72753C13.0473 3.3243 13.5292 2.82442 13.9118 2.25151Z" fill="black"/>
</svg>
