<svg width="16" height="12" viewBox="0 0 16 12" fill="none" xmlns="http://www.w3.org/2000/svg">
<path d="M15.5334 2.86683C15.5334 2.7335 15.3334 1.66683 14.8667 1.20016C14.2667 0.533496 13.6 0.466829 13.2667 0.466829H13.2C11.1334 0.333496 8.06671 0.333496 8.00004 0.333496C8.00004 0.333496 4.86671 0.333496 2.80004 0.466829H2.73337C2.40004 0.466829 1.73337 0.533496 1.13337 1.20016C0.666707 1.7335 0.466707 2.80016 0.466707 2.9335C0.466707 3.00016 0.333374 4.20016 0.333374 5.46683V6.60016C0.333374 7.86683 0.466707 9.06683 0.466707 9.1335C0.466707 9.26683 0.666707 10.3335 1.13337 10.8002C1.66671 11.4002 2.33337 11.4668 2.73337 11.5335H2.93337C4.13337 11.6668 7.80004 11.6668 7.93337 11.6668C7.93337 11.6668 11.0667 11.6668 13.1334 11.5335H13.2C13.5334 11.4668 14.2 11.4002 14.8 10.8002C15.2667 10.2668 15.4667 9.20016 15.4667 9.06683C15.4667 9.00016 15.6 7.80016 15.6 6.5335V5.40016C15.6667 4.20016 15.5334 2.9335 15.5334 2.86683ZM10.6 6.1335L6.60004 8.26683C6.53337 8.26683 6.53337 8.3335 6.46671 8.3335C6.40004 8.3335 6.33337 8.3335 6.33337 8.26683C6.26671 8.20016 6.20004 8.1335 6.20004 8.00016V3.66683C6.20004 3.5335 6.26671 3.46683 6.33337 3.40016C6.40004 3.3335 6.53337 3.3335 6.66671 3.40016L10.6667 5.5335C10.8 5.60016 10.8667 5.66683 10.8667 5.80016C10.8667 5.9335 10.7334 6.06683 10.6 6.1335Z" fill="black"/>
</svg>
